<mxfile host="app.diagrams.net" agent="Mozilla/5.0 (Windows NT 10.0; Win64; x64) AppleWebKit/537.36 (KHTML, like Gecko) Chrome/133.0.0.0 Safari/537.36 OPR/118.0.0.0" version="27.0.9">
  <diagram name="Page-1" id="jJ7n3A1it99_hdllu_8M">
    <mxGraphModel dx="3248" dy="868" grid="1" gridSize="10" guides="1" tooltips="1" connect="1" arrows="1" fold="1" page="1" pageScale="1" pageWidth="1654" pageHeight="1169" math="0" shadow="0">
      <root>
        <mxCell id="0" />
        <mxCell id="1" parent="0" />
        <mxCell id="_tZKHd5Szc6mgcDDZj10-1" value="" style="rounded=1;whiteSpace=wrap;html=1;fillColor=light-dark(#273B8D,#273B8D);strokeColor=none;gradientColor=light-dark(#FF3333,#BE1E2D);gradientDirection=north;" parent="1" vertex="1">
          <mxGeometry x="-1567" y="395" width="1480" height="380" as="geometry" />
        </mxCell>
        <mxCell id="_tZKHd5Szc6mgcDDZj10-7" value="&lt;div style=&quot;&quot;&gt;&lt;font face=&quot;Gochi Hand&quot; style=&quot;color: light-dark(rgb(255, 255, 255), rgb(237, 237, 237)); font-size: 110px;&quot; data-font-src=&quot;https://fonts.googleapis.com/css?family=Gochi+Hand&quot;&gt;fortune&lt;/font&gt;&lt;/div&gt;" style="text;html=1;align=center;verticalAlign=middle;whiteSpace=wrap;rounded=0;fontFamily=Lato;fontSource=https%3A%2F%2Ffonts.googleapis.com%2Fcss%3Ffamily%3DLato;" parent="1" vertex="1">
          <mxGeometry x="-1562" y="530" width="1470" height="110" as="geometry" />
        </mxCell>
      </root>
    </mxGraphModel>
  </diagram>
</mxfile>
